<svg id="Capa_1" enable-background="new 0 0 512 512" height="100" viewBox="0 0 512 512" width="70" xmlns="http://www.w3.org/2000/svg"><g><g><path d="m387.838 400.356c19.198 8.194 41.451-.997 49.197-20.519 7.186-18.11-1.104-39.067-18.735-47.358-3.78-1.777-7.694-2.86-11.606-3.308-3.509-.402-5.439-4.19-3.793-7.316.576-1.094 1.112-2.219 1.606-3.376 10.012-23.457-.887-50.59-24.344-60.602-18.718-7.989-39.768-2.655-52.599 11.743-1.549 1.738-4.111 2.219-6.135 1.068-1.204-.685-2.459-1.31-3.763-1.867-18.898-8.066-40.758.715-48.824 19.613-.007.017-.015.035-.022.052-1.102 2.592-4.049 3.776-6.638 2.667-.017-.007-.035-.015-.052-.022-18.898-8.066-40.758.715-48.824 19.613s.715 40.758 19.613 48.824z" fill="#b3dafe"/></g><g><path d="m437.035 379.837c-5.554 14.006-18.591 22.697-32.607 23.456 5.334-3.976 9.67-9.44 12.317-16.104 7.183-18.112-1.109-39.07-18.741-47.362-3.776-1.768-7.692-2.857-11.608-3.307-3.506-.4-5.434-4.186-3.786-7.313.569-1.089 1.109-2.218 1.598-3.377 10.02-23.456-.879-50.589-24.345-60.599-7.602-3.247-15.594-4.296-23.266-3.417 12.497-8.242 28.761-10.26 43.566-3.936 23.456 10.01 34.355 37.142 24.345 60.599-.5 1.159-1.029 2.288-1.608 3.377-1.648 3.127.29 6.913 3.796 7.313 3.916.449 7.822 1.538 11.608 3.307 17.632 8.293 25.913 29.252 18.731 47.363z" fill="#8ac9fe"/></g><g><path d="m349.075 41.54 20.029 40.583c.957 1.939 2.807 3.283 4.947 3.594l44.786 6.508c5.389.783 7.541 7.405 3.641 11.206l-32.408 31.589c-1.548 1.509-2.255 3.684-1.889 5.815l7.65 44.605c.921 5.367-4.713 9.46-9.533 6.926l-40.058-21.059c-1.914-1.006-4.201-1.006-6.115 0l-40.058 21.059c-4.82 2.534-10.453-1.559-9.533-6.926l7.65-44.605c.366-2.131-.341-4.306-1.89-5.815l-32.407-31.589c-3.899-3.801-1.748-10.423 3.641-11.206l44.786-6.508c2.14-.311 3.99-1.655 4.947-3.594l20.029-40.583c2.412-4.883 9.375-4.883 11.785 0z" fill="#fece85"/></g><g><path d="m390.072 135.015c-1.548 1.518-2.258 3.686-1.888 5.824l7.642 44.605c.929 5.365-4.705 9.46-9.53 6.923l-14.715-7.732c2.258-1.289 3.756-3.866 3.247-6.833l-7.652-44.605c-.36-2.128.34-4.306 1.888-5.814l32.407-31.588c1.688-1.648 2.248-3.816 1.898-5.814l15.464 2.248c5.395.779 7.542 7.403 3.646 11.199z" fill="#fdb441"/></g><g><path d="m488.557 381.2c-56.291 95.505-174.148 150.295-299.028 109.774-74.279-24.102-131.915-83.45-154.689-158.147-47.933-157.217 54.719-302.254 198.174-325.282 3.521-.565 5.905 3.474 3.709 6.284-42.845 54.835-61.364 129.639-39.301 208.028 21.353 75.866 81.569 134.791 157.745 155.011 45.308 12.026 89.372 10.54 128.941-1.337 3.369-1.011 6.235 2.639 4.449 5.669z" fill="#fece85"/></g><g><path d="m488.553 381.196c-1.768 2.997-3.596 5.954-5.494 8.871-42.088 12.527-88.91 14.056-137.051 1.279-81.278-21.578-145.523-84.445-168.31-165.393-22.568-80.199-5.326-156.881 36.432-214.623 6.204-1.498 12.507-2.767 18.881-3.786 3.526-.559 5.904 3.476 3.716 6.284-42.847 54.835-61.368 129.639-39.3 208.029 21.349 75.863 81.568 134.794 157.741 155.013 45.304 12.028 89.37 10.539 128.94-1.339 3.366-1.008 6.233 2.638 4.445 5.665z" fill="#fdb441"/></g><g><g><path d="m69.484 370.172c-6.806 11.871-23.672 38.235-44.536 48.785-2.715 1.373-2.715 5.28 0 6.653 20.864 10.55 37.73 36.913 44.536 48.785 1.437 2.506 5.062 2.506 6.498 0 6.806-11.871 23.672-38.235 44.536-48.785 2.715-1.373 2.715-5.28 0-6.653-20.864-10.55-37.73-36.913-44.536-48.785-1.437-2.506-5.062-2.506-6.498 0z" fill="#b3dafe"/></g><g><path d="m120.516 425.609c-20.86 10.551-37.732 36.916-44.535 48.788-1.437 2.506-5.057 2.506-6.494 0-2.046-3.574-4.999-8.447-8.7-13.803 7.654-11.091 15.01-24.273 27.572-32.249 4.413-2.793 4.413-9.321 0-12.125-12.562-7.976-19.917-21.159-27.572-32.249 3.701-5.367 6.654-10.24 8.7-13.803 1.437-2.505 5.057-2.505 6.494 0 6.804 11.872 23.676 38.237 44.535 48.788 2.712 1.378 2.712 5.286 0 6.653z" fill="#8ac9fe"/></g><g><path d="m126.098 263.896c-5.548 9.676-19.295 31.165-36.302 39.765-2.213 1.119-2.213 4.303 0 5.422 17.007 8.599 30.754 30.088 36.302 39.765 1.171 2.042 4.126 2.042 5.297 0 5.548-9.676 19.295-31.165 36.302-39.765 2.213-1.119 2.213-4.303 0-5.422-17.007-8.599-30.754-30.088-36.302-39.765-1.171-2.042-4.126-2.042-5.297 0z" fill="#b3dafe"/></g><g><path d="m167.7 309.079c-17.013 8.601-30.759 30.09-36.303 39.77-1.169 2.038-4.126 2.038-5.295 0-1.698-2.967-4.176-7.043-7.263-11.518 5.564-8.032 13.157-17.362 21.958-23.846 4.775-3.516 4.775-10.709 0-14.226-8.801-6.484-16.393-15.814-21.958-23.846 3.087-4.475 5.564-8.551 7.263-11.518 1.169-2.038 4.126-2.038 5.295 0 5.544 9.68 19.29 31.168 36.303 39.77 2.207 1.119 2.207 4.296 0 5.414z" fill="#8ac9fe"/></g><g><path d="m290.72 140.047-7.569 44.127c-.911 5.314 1.232 10.584 5.595 13.754 4.362 3.169 10.036 3.579 14.809 1.07l39.628-20.834 39.628 20.833c2.076 1.092 4.322 1.631 6.557 1.631 2.903 0 5.788-.91 8.252-2.701 4.362-3.17 6.506-8.44 5.594-13.754l-7.568-44.127 32.06-31.251c3.861-3.764 5.225-9.288 3.558-14.416-1.666-5.128-6.016-8.795-11.351-9.57l-44.306-6.438-19.814-40.148c-2.386-4.835-7.218-7.839-12.609-7.839 0 0 0 0-.001 0-5.392 0-10.224 3.004-12.61 7.839l-19.814 40.148-44.305 6.438c-5.336.775-9.686 4.442-11.352 9.57s-.303 10.652 3.558 14.416zm22.675-46.916c4.581-.666 8.539-3.542 10.587-7.693l19.201-38.906 19.202 38.906c2.048 4.151 6.006 7.027 10.588 7.693l42.936 6.239-31.069 30.285c-3.315 3.232-4.827 7.885-4.044 12.447l7.334 42.762-38.403-20.189c-4.098-2.154-8.99-2.154-13.088 0l-38.403 20.19 7.334-42.763c.782-4.563-.73-9.217-4.045-12.446l-31.067-30.286z"/><path d="m494.162 372.228c-2.907-3.707-7.697-5.228-12.209-3.873-11.713 3.516-23.719 6.027-35.897 7.549 4.508-20.08-5.409-41.196-24.569-50.204-3.357-1.578-6.863-2.728-10.461-3.432.126-.281.249-.563.37-.845 3.761-8.812 5.102-18.468 3.876-27.924-.532-4.103-4.286-6.994-8.393-6.468-4.104.532-6.999 4.29-6.468 8.393.882 6.806-.085 13.762-2.797 20.113-.41.959-.862 1.911-1.346 2.83-1.937 3.679-1.939 8.058-.007 11.715 1.915 3.624 5.495 6.067 9.578 6.534 3.198.366 6.317 1.256 9.27 2.644 14.16 6.658 20.731 23.267 14.959 37.814-.034.087-.075.169-.11.255-24.125 1.269-48.714-1.29-72.872-7.703-36.166-9.6-69.398-28.529-96.105-54.743-6.116-6.003-11.832-12.367-17.164-19.019 5.175-.657 10.459.064 15.409 2.177 3.096 1.326 6.511 1.369 9.621.12 3.109-1.249 5.546-3.644 6.881-6.784 6.431-15.069 23.925-22.096 38.991-15.664 1.021.436 2.03.937 3.001 1.489 5.045 2.869 11.536 1.777 15.432-2.596 11.062-12.413 28.77-16.365 44.065-9.837 3.288 1.403 6.351 3.239 9.105 5.457 3.224 2.595 7.94 2.087 10.535-1.136 2.596-3.222 2.087-7.939-1.136-10.535-3.823-3.079-8.07-5.626-12.622-7.568-20.615-8.799-44.39-3.872-59.799 12.205-.887-.451-1.789-.873-2.698-1.261-21.935-9.362-47.28.233-57.688 21.454-9.34-3.438-19.399-3.652-28.856-.649-13.127-19.197-23.108-40.456-29.427-62.909-20.088-71.372-6.24-144.774 37.993-201.385 2.911-3.726 3.239-8.762.836-12.831-2.402-4.069-6.968-6.212-11.638-5.464-59.304 9.521-113.776 39.873-153.377 85.464-2.714 3.124-2.381 7.856.743 10.57 3.125 2.714 7.857 2.381 10.57-.743 35.313-40.655 83.174-68.443 135.559-78.895-42.823 59.334-55.647 134.37-35.107 207.345 10.819 38.44 31.662 73.604 60.277 101.69 28.556 28.028 64.088 48.269 102.757 58.532 41.442 11 84.124 11.351 124.053 1.093-27.458 42.773-68.083 76.292-115.285 94.925-53.609 21.162-112.453 22.448-170.171 3.719-29.286-9.503-55.931-24.718-78.745-44.317 3.45-2.856 7.067-5.346 10.803-7.235 3.793-1.917 6.148-5.754 6.148-10.012s-2.356-8.095-6.148-10.012c-19.248-9.733-35.376-35.289-41.418-45.825-1.996-3.482-5.732-5.646-9.749-5.646s-7.753 2.163-9.749 5.646c-.958 1.67-2.171 3.72-3.608 6.023-7.055-13.221-12.911-27.203-17.369-41.826-22.183-72.759-12.508-146.61 27.241-207.951 2.25-3.473 1.259-8.112-2.213-10.362s-8.112-1.259-10.362 2.213c-20.248 31.246-33.224 65.742-38.567 102.528-5.651 38.902-2.432 78.584 9.568 117.942 5.509 18.07 13.006 35.232 22.207 51.258-7.618 10.012-17.471 20.518-28.315 26.001-3.792 1.918-6.147 5.755-6.147 10.012 0 4.258 2.355 8.094 6.148 10.012 19.248 9.733 35.376 35.289 41.417 45.825 1.996 3.482 5.732 5.646 9.749 5.646s7.753-2.163 9.749-5.645c3.573-6.232 10.676-17.717 19.865-28.075 24.515 21.286 53.247 37.794 84.87 48.055 28.573 9.271 57.426 13.9 85.869 13.9 32.346 0 64.161-5.986 94.429-17.934 53.125-20.971 98.405-59.703 127.497-109.061 2.39-4.058 2.057-9.073-.849-12.779zm-421.429 92.963c-8.22-13.381-21.771-32.095-38.561-42.908 16.79-10.814 30.341-29.527 38.561-42.908 8.22 13.381 21.771 32.094 38.561 42.908-16.79 10.814-30.341 29.526-38.561 42.908z"/><path d="m86.415 315.769c15.357 7.765 28.321 28.326 33.183 36.806 1.874 3.268 5.38 5.297 9.149 5.297s7.274-2.03 9.147-5.297c4.862-8.48 17.828-29.041 33.183-36.806 3.56-1.8 5.772-5.401 5.772-9.397s-2.212-7.597-5.772-9.397c-15.356-7.765-28.321-28.326-33.183-36.805-1.873-3.268-5.378-5.298-9.148-5.298 0 0 0 0-.001 0-3.769 0-7.275 2.03-9.148 5.297v.001c-4.861 8.479-17.826 29.04-33.182 36.804-3.56 1.8-5.772 5.401-5.772 9.398.001 3.997 2.212 7.598 5.772 9.397zm42.331-41.753c6.549 10.357 16.607 23.8 28.941 32.356-12.335 8.556-22.392 21.999-28.941 32.356-6.549-10.357-16.606-23.799-28.941-32.356 12.336-8.557 22.393-22 28.941-32.356z"/></g></g></g></svg>